# xmcd
#
# Track frame offsets:
#	150
#	21538
#	41534
#	56303
#	72952
#	86943
#	105679
#	126978
#	144004
#	159333
#	176330
#	196707
#	216083
#	230263
#	246805
#	266894
#	286592
#	303898
#	323072
#	339071
#
# Disc length: 4791 seconds
#
# Revision: 1
# Processed by: cddbd v1.5.2PL0 Copyright (c) Steve Scherf et al.
# Submitted via: audiograbber 1.83.01
#
DISCID=0d12b514
DTITLE=Various Artist - Country Hits 2007 - The Best of New Country
DYEAR=2006
DGENRE=Country
TTITLE0=Keith Urban - Better Life
TTITLE1=The Road Hammers - Nashville Bound
TTITLE2=Reba McEntire - Love Needs A Holiday
TTITLE3=George Canyon - Somebody Wrote Love
TTITLE4=Emerson Drive - A Good Man
TTITLE5=Sugarland - Just Might (Make Me Believe)
TTITLE6=Dierks Bentley - Come A Little Closer
TTITLE7=Paul Brandt - Alberta Bound
TTITLE8=Terri Clark - She Didn't Have Time
TTITLE9=Gary Allan - Life Ain't Always Beautiful
TTITLE10=Billy Currington - Must Be Doin' Somethin' Right
TTITLE11=Carolyn Dawn Johnson - Crybaby
TTITLE12=Joe Nichols - Tequila Makes Her Clothes Fall Off
TTITLE13=Neal McCoy - Billy's Got His Beer Goggles On
TTITLE14=Doc Walker - I Am Ready
TTITLE15=Little Big Town - Bring It On Home
TTITLE16=Amanda Wilkinson - It's Okay to Cry
TTITLE17=Johnny Reid - Time Flies
TTITLE18=Josh Turner - Your Man
TTITLE19=Patricia Conroy - Talking to Myself
EXTD=
EXTT0=
EXTT1=
EXTT2=
EXTT3=
EXTT4=
EXTT5=
EXTT6=
EXTT7=
EXTT8=
EXTT9=
EXTT10=
EXTT11=
EXTT12=
EXTT13=
EXTT14=
EXTT15=
EXTT16=
EXTT17=
EXTT18=
EXTT19=
PLAYORDER=
